<svg width="3547" height="1165" viewBox="0 0 3547 1165" fill="none" xmlns="http://www.w3.org/2000/svg">

<path d="M1991.15 840V569.9C1991.15 553.353 1990.66 536.563 1989.69 519.53C1988.72 502.497 1987.26 485.707 1985.31 469.16H2110.87L2118.17 533.4H2110.14C2120.85 511.013 2136.66 493.493 2157.59 480.84C2178.52 467.7 2203.09 461.13 2231.32 461.13C2258.57 461.13 2281.69 467.7 2300.67 480.84C2320.14 493.493 2334.25 513.69 2343.01 541.43H2330.6C2342.77 516.123 2360.29 496.413 2383.16 482.3C2406.52 468.187 2432.56 461.13 2461.27 461.13C2503.61 461.13 2535.24 474.027 2556.17 499.82C2577.1 525.127 2587.56 564.79 2587.56 618.81V840H2456.89V623.19C2456.89 600.317 2453.48 584.257 2446.67 575.01C2439.86 565.277 2428.91 560.41 2413.82 560.41C2394.84 560.41 2380 567.223 2369.29 580.85C2359.07 594.477 2353.96 613.213 2353.96 637.06V840H2224.02V623.19C2224.02 600.317 2220.37 584.257 2213.07 575.01C2206.26 565.277 2195.55 560.41 2180.95 560.41C2161.97 560.41 2147.13 567.223 2136.42 580.85C2126.2 594.477 2121.09 613.213 2121.09 637.06V840H1991.15ZM2875.64 848.03C2808.48 848.03 2756.16 830.753 2718.69 796.2C2681.7 761.647 2663.21 714.197 2663.21 653.85C2663.21 616.377 2670.99 583.04 2686.57 553.84C2702.14 524.64 2724.04 502.01 2752.27 485.95C2780.49 469.403 2813.59 461.13 2851.55 461.13C2889.02 461.13 2920.17 469.403 2944.99 485.95C2970.29 502.01 2989.27 524.397 3001.93 553.11C3014.58 581.337 3020.91 614.187 3020.91 651.66V679.4H2771.98V618.08H2925.28L2912.87 628.3C2912.87 600.56 2907.51 580.12 2896.81 566.98C2886.59 553.353 2871.99 546.54 2853.01 546.54C2831.11 546.54 2814.32 554.813 2802.64 571.36C2791.44 587.42 2785.85 611.753 2785.85 644.36V657.5C2785.85 690.107 2793.88 713.953 2809.94 729.04C2826 744.127 2849.11 751.67 2879.29 751.67C2898.75 751.67 2917 749.48 2934.04 745.1C2951.56 740.72 2968.1 733.663 2983.68 723.93L3017.26 808.61C2998.76 821.263 2977.35 830.997 2953.02 837.81C2928.68 844.623 2902.89 848.03 2875.64 848.03ZM3254.8 848.03C3222.68 848.03 3194.45 840.487 3170.12 825.4C3145.78 809.827 3126.56 787.44 3112.45 758.24C3098.82 729.04 3092.01 694.487 3092.01 654.58C3092.01 614.187 3098.82 579.633 3112.45 550.92C3126.56 521.72 3145.78 499.577 3170.12 484.49C3194.45 468.917 3222.68 461.13 3254.8 461.13C3283.51 461.13 3309.3 467.943 3332.18 481.57C3355.54 495.197 3370.87 512.96 3378.17 534.86H3370.87L3378.9 469.16H3503.73C3502.27 485.707 3500.81 502.497 3499.35 519.53C3498.37 536.563 3497.89 553.353 3497.89 569.9V840H3369.41L3367.95 777.22H3376.71C3369.41 798.633 3354.08 815.91 3330.72 829.05C3307.84 841.703 3282.54 848.03 3254.8 848.03ZM3296.41 751.67C3318.31 751.67 3336.07 744.127 3349.7 729.04C3363.32 713.467 3370.14 688.647 3370.14 654.58C3370.14 620.513 3363.32 595.937 3349.7 580.85C3336.07 565.277 3318.31 557.49 3296.41 557.49C3274.51 557.49 3256.74 565.277 3243.12 580.85C3229.49 595.937 3222.68 620.513 3222.68 654.58C3222.68 688.647 3229.25 713.467 3242.39 729.04C3256.01 744.127 3274.02 751.67 3296.41 751.67Z" fill="#87A0AF"/>

<path d="M1799 468H1865.75L1756.25 645V654L1874.75 840H1806.5L1705.25 676.5H1691.75L1590.5 840H1522.25L1640.75 654V645L1531.25 468H1598L1691.75 622.5H1705.25L1799 468Z" fill="#03364D"/>

<path d="M1311.95 840.4C1277.65 840.4 1248.25 832 1223.75 815.2C1199.48 798.4 1180.93 775.767 1168.1 747.3C1155.27 718.833 1148.85 687.333 1148.85 652.8C1148.85 613.367 1155.62 579.767 1169.15 552C1182.68 524 1201.58 502.65 1225.85 487.95C1250.35 473.25 1279.05 465.9 1311.95 465.9C1338.78 465.9 1363.4 471.967 1385.8 484.1C1408.43 496.233 1426.52 515.017 1440.05 540.45C1453.58 565.65 1460.35 598.083 1460.35 637.75C1460.35 642.183 1460.23 647.667 1460 654.2C1460 660.5 1459.53 667.733 1458.6 675.9H1193.65V625.5H1403.3C1402.83 597.033 1397.7 574.983 1387.9 559.35C1378.33 543.483 1366.55 532.4 1352.55 526.1C1338.55 519.8 1325.02 516.65 1311.95 516.65C1275.55 516.65 1248.83 528.2 1231.8 551.3C1214.77 574.167 1206.25 604.85 1206.25 643.35C1206.25 688.15 1215.7 723.5 1234.6 749.4C1253.5 775.3 1279.87 788.25 1313.7 788.25C1327.93 788.25 1342.05 786.033 1356.05 781.6C1370.05 776.933 1383.82 769.233 1397.35 758.5L1429.55 795.95C1414.62 808.783 1397 819.4 1376.7 827.8C1356.63 836.2 1335.05 840.4 1311.95 840.4Z" fill="#03364D"/>

<path d="M927.625 841V318.625L988.375 299.5V841H927.625ZM820.375 841V786.625H1095.63V841H820.375ZM835 353.875L807.625 299.5H988.375L967.75 353.875H835Z" fill="#03364D"/>

<mask id="mask0_558_116" style="mask-type:luminance" maskUnits="userSpaceOnUse" x="0" y="298" width="667" height="822">

<path d="M667 298H0V1120H667V298Z" fill="white"/>

</mask>

<g mask="url(#mask0_558_116)">

<path fill-rule="evenodd" clip-rule="evenodd" d="M117.5 327.26C117.5 318 125.004 310.5 134.261 310.5H636.74C646 310.5 653.5 318 653.5 327.26V980.74C653.5 990 646 997.5 636.74 997.5H134.261C125.004 997.5 117.5 990 117.5 980.74V327.26Z" stroke="#03364D" stroke-width="22.6667" stroke-miterlimit="8"/>

<path d="M16.5 410.25L123.565 313.5" stroke="#03364D" stroke-width="21.3333" stroke-miterlimit="8"/>

<path fill-rule="evenodd" clip-rule="evenodd" d="M556.34 1093.88L544.53 974.01L647.66 980.99L556.34 1093.88Z" fill="#E7E6E6"/>

<path fill-rule="evenodd" clip-rule="evenodd" d="M648 316L541.87 465L135 316H648Z" fill="white"/>

<path fill-rule="evenodd" clip-rule="evenodd" d="M37 405L135.267 316L551 405H37Z" fill="white"/>

<path fill-rule="evenodd" clip-rule="evenodd" d="M648 316L549 415.234L549 1093L648 993.766L648 316Z" fill="#E7E6E6"/>

<path fill-rule="evenodd" clip-rule="evenodd" d="M2.5 421.27C2.5 405.93 14.934 393.5 30.271 393.5H541.73C557.07 393.5 569.5 405.93 569.5 421.27V1091.73C569.5 1107.07 557.07 1119.5 541.73 1119.5H30.271C14.934 1119.5 2.5 1107.07 2.5 1091.73V421.27Z" fill="#03364D" stroke="#03364D" stroke-width="1.33333" stroke-miterlimit="8"/>

<path d="M1 778H157.617" stroke="white" stroke-width="52.3333" stroke-miterlimit="8"/>

<path fill-rule="evenodd" clip-rule="evenodd" d="M315.5 677C315.5 719.25 281.026 753.5 238.5 753.5C195.974 753.5 161.5 719.25 161.5 677C161.5 634.75 195.974 600.5 238.5 600.5C281.026 600.5 315.5 634.75 315.5 677ZM276.047 677C276.047 656.54 259.237 639.95 238.5 639.95C217.763 639.95 200.953 656.54 200.953 677C200.953 697.46 217.763 714.05 238.5 714.05C259.237 714.05 276.047 697.46 276.047 677Z" fill="white" stroke="white" stroke-width="3.33333" stroke-miterlimit="8"/>

<path d="M1 926H243.29" stroke="white" stroke-width="52.3333" stroke-miterlimit="8"/>

<path fill-rule="evenodd" clip-rule="evenodd" d="M384.5 926C384.5 968.25 350.026 1002.5 307.5 1002.5C264.974 1002.5 230.5 968.25 230.5 926C230.5 883.75 264.974 849.5 307.5 849.5C350.026 849.5 384.5 883.75 384.5 926ZM345.776 926C345.776 905.14 328.639 888.22 307.5 888.22C286.361 888.22 269.224 905.14 269.224 926C269.224 946.86 286.361 963.78 307.5 963.78C328.639 963.78 345.776 946.86 345.776 926Z" fill="white" stroke="white" stroke-width="3.33333" stroke-miterlimit="8"/>

<path d="M138 786.93L188.457 729.996" stroke="white" stroke-width="52.3333" stroke-miterlimit="8"/>

<path fill-rule="evenodd" clip-rule="evenodd" d="M44.9238 392.861L54.2627 392.846L139.908 315.139L130.569 315.154L44.9238 392.861Z" fill="#E3E1E1"/>

</g>

<path d="M844.616 1118.5C837.128 1118.5 829.848 1116.62 822.776 1112.88C815.843 1109 810.365 1103.24 806.344 1095.62L813.208 1090C817.229 1096.79 822.013 1101.79 827.56 1104.98C833.245 1108.17 838.931 1109.76 844.616 1109.76C855.987 1109.76 864.237 1106.71 869.368 1100.61C874.637 1094.51 877.272 1085.22 877.272 1072.74V986.832H817.576V978.72H886.84V1073.78C886.84 1081.96 885.523 1089.45 882.888 1096.24C880.392 1103.03 876.024 1108.44 869.784 1112.46C863.683 1116.49 855.293 1118.5 844.616 1118.5ZM965.591 1118.5C953.388 1118.5 944.375 1115.17 938.551 1108.51C932.727 1101.86 929.815 1091.8 929.815 1078.35V1016.16H938.967V1077.1C938.967 1088.34 941.116 1096.66 945.415 1102.06C949.852 1107.47 957.063 1110.18 967.047 1110.18C974.119 1110.18 980.567 1108.37 986.391 1104.77C992.215 1101.02 998.524 1095.27 1005.32 1087.5V1016.16H1014.47V1116H1006.77L1005.73 1096.66H1004.9C999.495 1102.9 993.601 1108.1 987.223 1112.26C980.844 1116.42 973.633 1118.5 965.591 1118.5ZM1070.34 1116V1016.16H1078.25L1079.29 1040.7H1079.7C1085.11 1032.8 1091.77 1026.35 1099.67 1021.36C1107.71 1016.23 1116.73 1013.66 1126.71 1013.66C1130.04 1013.66 1133.43 1013.94 1136.9 1014.5C1140.37 1015.05 1143.63 1016.16 1146.68 1017.82L1144.18 1025.94C1140.44 1024.69 1137.32 1023.79 1134.82 1023.23C1132.46 1022.68 1129.27 1022.4 1125.25 1022.4C1116.93 1022.4 1108.96 1024.76 1101.33 1029.47C1093.85 1034.19 1086.63 1042.23 1079.7 1053.6V1116H1070.34ZM1215.03 1118.5C1209.07 1118.5 1203.45 1117.53 1198.18 1115.58C1192.91 1113.5 1188.61 1110.45 1185.28 1106.43C1181.96 1102.41 1180.29 1097.35 1180.29 1091.25C1180.29 1080.02 1186.25 1071.56 1198.18 1065.87C1210.24 1060.05 1229.8 1055.89 1256.84 1053.39C1256.84 1047.98 1255.93 1042.85 1254.13 1038C1252.33 1033.15 1249.28 1029.26 1244.98 1026.35C1240.68 1023.3 1234.72 1021.78 1227.09 1021.78C1222.1 1021.78 1217.25 1022.47 1212.53 1023.86C1207.82 1025.24 1203.45 1027.05 1199.43 1029.26C1195.41 1031.34 1192.01 1033.35 1189.24 1035.3L1185.08 1028.43C1187.71 1026.49 1191.25 1024.41 1195.68 1022.19C1200.26 1019.83 1205.32 1017.82 1210.87 1016.16C1216.55 1014.5 1222.31 1013.66 1228.13 1013.66C1237.15 1013.66 1244.43 1015.4 1249.97 1018.86C1255.52 1022.33 1259.54 1026.98 1262.04 1032.8C1264.67 1038.62 1265.99 1045.07 1265.99 1052.14V1116H1258.29L1257.25 1101.02H1256.84C1251.01 1105.6 1244.43 1109.69 1237.08 1113.3C1229.87 1116.76 1222.52 1118.5 1215.03 1118.5ZM1216.69 1110.59C1223.07 1110.59 1229.59 1109.07 1236.24 1106.02C1242.9 1102.97 1249.76 1098.46 1256.84 1092.5V1060.46C1239.92 1061.99 1226.54 1064.14 1216.69 1066.91C1206.85 1069.55 1199.84 1072.87 1195.68 1076.9C1191.66 1080.78 1189.65 1085.35 1189.65 1090.62C1189.65 1095.48 1190.97 1099.36 1193.6 1102.27C1196.24 1105.18 1199.57 1107.33 1203.59 1108.72C1207.75 1109.97 1212.12 1110.59 1216.69 1110.59ZM1348.28 1118.5C1345.09 1118.5 1342.17 1117.32 1339.54 1114.96C1337.04 1112.46 1335.8 1109.14 1335.8 1104.98C1335.8 1100.54 1337.04 1097.21 1339.54 1094.99C1342.17 1092.63 1345.09 1091.46 1348.28 1091.46C1351.6 1091.46 1354.52 1092.63 1357.01 1094.99C1359.51 1097.21 1360.76 1100.54 1360.76 1104.98C1360.76 1109.14 1359.51 1112.46 1357.01 1114.96C1354.52 1117.32 1351.6 1118.5 1348.28 1118.5ZM1502.97 1116V978.928H1584.09V987.248H1512.53V1039.04H1572.85V1047.36H1512.53V1107.68H1586.17V1116H1502.97ZM1671.57 1116V1024.06H1621.45V1016.16H1680.73V1116H1671.57ZM1673.86 991.824C1671.23 991.824 1668.94 990.923 1667 989.12C1665.06 987.317 1664.09 984.891 1664.09 981.84C1664.09 978.789 1665.06 976.363 1667 974.56C1668.94 972.757 1671.23 971.856 1673.86 971.856C1676.63 971.856 1678.92 972.757 1680.73 974.56C1682.67 976.363 1683.64 978.789 1683.64 981.84C1683.64 984.891 1682.67 987.317 1680.73 989.12C1678.92 990.923 1676.63 991.824 1673.86 991.824ZM1747.83 1116V1016.16H1755.73L1756.77 1035.3H1757.6C1763.29 1029.06 1769.25 1023.93 1775.49 1019.9C1781.73 1015.74 1788.87 1013.66 1796.92 1013.66C1809.12 1013.66 1818.13 1016.99 1823.96 1023.65C1829.92 1030.3 1832.9 1040.36 1832.9 1053.81V1116H1823.54V1055.06C1823.54 1043.82 1821.32 1035.5 1816.88 1030.1C1812.59 1024.69 1805.44 1021.98 1795.46 1021.98C1788.39 1021.98 1782.01 1023.86 1776.32 1027.6C1770.78 1031.21 1764.4 1036.82 1757.19 1044.45V1116H1747.83ZM1904.79 1116V1004.1C1904.79 995.637 1906.17 988.427 1908.95 982.464C1911.72 976.501 1915.81 971.925 1921.22 968.736C1926.77 965.547 1933.7 963.952 1942.02 963.952C1946.6 963.952 1951.1 964.368 1955.54 965.2C1960.12 966.032 1964.97 967.627 1970.1 969.984L1967.19 977.056C1962.61 974.837 1958.52 973.451 1954.92 972.896C1951.45 972.203 1947.36 971.856 1942.64 971.856C1932.1 971.856 1924.62 974.768 1920.18 980.592C1915.74 986.277 1913.52 993.835 1913.52 1003.26V1116H1904.79ZM1874.63 1024.06V1016.99L1904.79 1016.16H1959.91V1024.06H1874.63ZM2029.3 1118.5C2023.34 1118.5 2017.72 1117.53 2012.45 1115.58C2007.18 1113.5 2002.88 1110.45 1999.55 1106.43C1996.23 1102.41 1994.56 1097.35 1994.56 1091.25C1994.56 1080.02 2000.52 1071.56 2012.45 1065.87C2024.51 1060.05 2044.07 1055.89 2071.11 1053.39C2071.11 1047.98 2070.2 1042.85 2068.4 1038C2066.6 1033.15 2063.55 1029.26 2059.25 1026.35C2054.95 1023.3 2048.99 1021.78 2041.36 1021.78C2036.37 1021.78 2031.52 1022.47 2026.8 1023.86C2022.09 1025.24 2017.72 1027.05 2013.7 1029.26C2009.68 1031.34 2006.28 1033.35 2003.51 1035.3L1999.35 1028.43C2001.98 1026.49 2005.52 1024.41 2009.95 1022.19C2014.53 1019.83 2019.59 1017.82 2025.14 1016.16C2030.82 1014.5 2036.58 1013.66 2042.4 1013.66C2051.42 1013.66 2058.7 1015.4 2064.24 1018.86C2069.79 1022.33 2073.81 1026.98 2076.31 1032.8C2078.94 1038.62 2080.26 1045.07 2080.26 1052.14V1116H2072.56L2071.52 1101.02H2071.11C2065.28 1105.6 2058.7 1109.69 2051.35 1113.3C2044.14 1116.76 2036.79 1118.5 2029.3 1118.5ZM2030.96 1110.59C2037.34 1110.59 2043.86 1109.07 2050.51 1106.02C2057.17 1102.97 2064.03 1098.46 2071.11 1092.5V1060.46C2054.19 1061.99 2040.81 1064.14 2030.96 1066.91C2021.12 1069.55 2014.11 1072.87 2009.95 1076.9C2005.93 1080.78 2003.92 1085.35 2003.92 1090.62C2003.92 1095.48 2005.24 1099.36 2007.87 1102.27C2010.51 1105.18 2013.84 1107.33 2017.86 1108.72C2022.02 1109.97 2026.39 1110.59 2030.96 1110.59ZM2172.32 1118.5C2162.06 1118.5 2152.84 1116.49 2144.66 1112.46C2136.48 1108.3 2130.03 1102.34 2125.31 1094.58C2120.6 1086.67 2118.24 1077.24 2118.24 1066.29C2118.24 1055.19 2120.67 1045.7 2125.52 1037.79C2130.51 1029.89 2137.1 1023.93 2145.28 1019.9C2153.6 1015.74 2162.75 1013.66 2172.74 1013.66C2181.06 1013.66 2188.06 1015.19 2193.74 1018.24C2199.57 1021.29 2204.49 1024.83 2208.51 1028.85L2203.31 1035.09C2199.01 1031.07 2194.37 1027.88 2189.38 1025.52C2184.52 1023.02 2179.05 1021.78 2172.94 1021.78C2164.07 1021.78 2156.24 1023.65 2149.44 1027.39C2142.65 1031.14 2137.38 1036.41 2133.63 1043.2C2129.89 1049.86 2128.02 1057.55 2128.02 1066.29C2128.02 1075.02 2129.82 1082.72 2133.42 1089.38C2137.17 1096.03 2142.37 1101.23 2149.02 1104.98C2155.82 1108.58 2163.72 1110.38 2172.74 1110.38C2179.53 1110.38 2185.7 1109.07 2191.25 1106.43C2196.93 1103.66 2202 1100.19 2206.43 1096.03L2211.22 1102.48C2206.09 1107.19 2200.26 1111.08 2193.74 1114.13C2187.37 1117.04 2180.22 1118.5 2172.32 1118.5ZM2246.7 1116V966.448H2256.06V1009.71L2255.44 1035.92H2255.86C2261.82 1029.4 2267.92 1024.06 2274.16 1019.9C2280.54 1015.74 2287.75 1013.66 2295.79 1013.66C2307.99 1013.66 2317.01 1016.99 2322.83 1023.65C2328.79 1030.3 2331.78 1040.36 2331.78 1053.81V1116H2322.42V1055.06C2322.42 1043.82 2320.2 1035.5 2315.76 1030.1C2311.46 1024.69 2304.32 1021.98 2294.34 1021.98C2287.26 1021.98 2280.88 1023.86 2275.2 1027.6C2269.65 1031.21 2263.27 1036.82 2256.06 1044.45V1116H2246.7ZM2411.98 1118.5C2408.79 1118.5 2405.88 1117.32 2403.25 1114.96C2400.75 1112.46 2399.5 1109.14 2399.5 1104.98C2399.5 1100.54 2400.75 1097.21 2403.25 1094.99C2405.88 1092.63 2408.79 1091.46 2411.98 1091.46C2415.31 1091.46 2418.22 1092.63 2420.72 1094.99C2423.21 1097.21 2424.46 1100.54 2424.46 1104.98C2424.46 1109.14 2423.21 1112.46 2420.72 1114.96C2418.22 1117.32 2415.31 1118.5 2411.98 1118.5ZM2560.23 1116V978.928H2591.84C2605.85 978.928 2617.43 981.701 2626.58 987.248C2635.87 992.795 2642.73 1000.7 2647.17 1010.96C2651.61 1021.22 2653.83 1033.22 2653.83 1046.94C2653.83 1060.81 2651.61 1072.94 2647.17 1083.34C2642.73 1093.74 2635.94 1101.79 2626.79 1107.47C2617.63 1113.16 2606.06 1116 2592.05 1116H2560.23ZM2569.79 1107.89H2591.01C2603.35 1107.89 2613.4 1105.32 2621.17 1100.19C2628.94 1094.92 2634.62 1087.71 2638.23 1078.56C2641.97 1069.41 2643.84 1058.87 2643.84 1046.94C2643.84 1035.02 2641.97 1024.55 2638.23 1015.54C2634.62 1006.52 2628.94 999.52 2621.17 994.528C2613.4 989.536 2603.35 987.04 2591.01 987.04H2569.79V1107.89ZM2735.28 1116V1024.06H2685.15V1016.16H2744.43V1116H2735.28ZM2737.57 991.824C2734.93 991.824 2732.65 990.923 2730.7 989.12C2728.76 987.317 2727.79 984.891 2727.79 981.84C2727.79 978.789 2728.76 976.363 2730.7 974.56C2732.65 972.757 2734.93 971.856 2737.57 971.856C2740.34 971.856 2742.63 972.757 2744.43 974.56C2746.37 976.363 2747.34 978.789 2747.34 981.84C2747.34 984.891 2746.37 987.317 2744.43 989.12C2742.63 990.923 2740.34 991.824 2737.57 991.824ZM2853.76 1164.05C2843.36 1164.05 2834.69 1162.8 2827.76 1160.3C2820.96 1157.95 2815.83 1154.55 2812.37 1150.11C2808.9 1145.81 2807.17 1140.82 2807.17 1135.14C2807.17 1131.25 2808.62 1127.16 2811.54 1122.86C2814.45 1118.7 2818.61 1114.96 2824.02 1111.63V1110.8C2821.52 1109.55 2819.16 1107.61 2816.94 1104.98C2814.72 1102.34 2813.62 1098.94 2813.62 1094.78C2813.62 1091.59 2814.66 1088.34 2816.74 1085.01C2818.82 1081.54 2821.8 1078.49 2825.68 1075.86V1075.02C2822.49 1072.39 2819.72 1068.92 2817.36 1064.62C2815 1060.33 2813.82 1055.19 2813.82 1049.23C2813.82 1042.44 2815.49 1036.34 2818.82 1030.93C2822.28 1025.52 2826.79 1021.29 2832.34 1018.24C2838.02 1015.19 2844.26 1013.66 2851.06 1013.66C2856.32 1013.66 2860.9 1014.5 2864.78 1016.16H2906.38V1024.06H2876.22C2879.27 1026.98 2881.98 1030.65 2884.34 1035.09C2886.69 1039.39 2887.87 1044.17 2887.87 1049.44C2887.87 1056.23 2886.21 1062.27 2882.88 1067.54C2879.69 1072.81 2875.25 1076.9 2869.57 1079.81C2864.02 1082.72 2857.85 1084.18 2851.06 1084.18C2848 1084.18 2844.82 1083.83 2841.49 1083.14C2838.3 1082.3 2835.18 1081.13 2832.13 1079.6C2829.22 1081.4 2826.86 1083.55 2825.06 1086.05C2823.25 1088.41 2822.35 1090.9 2822.35 1093.54C2822.35 1098.39 2824.43 1101.93 2828.59 1104.14C2832.75 1106.36 2838.37 1107.47 2845.44 1107.47H2870.19C2882.95 1107.47 2892.17 1109.21 2897.86 1112.67C2903.68 1116.14 2906.59 1121.89 2906.59 1129.94C2906.59 1135.62 2904.37 1141.1 2899.94 1146.37C2895.64 1151.64 2889.54 1155.87 2881.63 1159.06C2873.87 1162.38 2864.58 1164.05 2853.76 1164.05ZM2851.06 1076.9C2856.05 1076.9 2860.62 1075.72 2864.78 1073.36C2869.08 1071 2872.48 1067.74 2874.98 1063.58C2877.47 1059.42 2878.72 1054.64 2878.72 1049.23C2878.72 1043.82 2877.47 1039.04 2874.98 1034.88C2872.48 1030.58 2869.08 1027.25 2864.78 1024.9C2860.62 1022.54 2856.05 1021.36 2851.06 1021.36C2845.92 1021.36 2841.28 1022.54 2837.12 1024.9C2832.96 1027.25 2829.56 1030.58 2826.93 1034.88C2824.43 1039.04 2823.18 1043.82 2823.18 1049.23C2823.18 1054.64 2824.43 1059.42 2826.93 1063.58C2829.56 1067.74 2832.96 1071 2837.12 1073.36C2841.28 1075.72 2845.92 1076.9 2851.06 1076.9ZM2853.14 1156.56C2862.29 1156.56 2870.12 1155.31 2876.64 1152.82C2883.3 1150.32 2888.36 1147.06 2891.82 1143.04C2895.29 1139.16 2897.02 1135.14 2897.02 1130.98C2897.02 1125.29 2894.87 1121.41 2890.58 1119.33C2886.28 1117.25 2879.76 1116.21 2871.02 1116.21H2847.31C2844.82 1116.21 2842.18 1116.07 2839.41 1115.79C2836.77 1115.51 2834.35 1115.03 2832.13 1114.34C2826.16 1117.53 2821.94 1120.92 2819.44 1124.53C2817.08 1128.13 2815.9 1131.74 2815.9 1135.34C2815.9 1141.31 2818.95 1146.3 2825.06 1150.32C2831.3 1154.48 2840.66 1156.56 2853.14 1156.56ZM2984.72 1116V1024.06H2934.59V1016.16H2993.87V1116H2984.72ZM2987.01 991.824C2984.37 991.824 2982.08 990.923 2980.14 989.12C2978.2 987.317 2977.23 984.891 2977.23 981.84C2977.23 978.789 2978.2 976.363 2980.14 974.56C2982.08 972.757 2984.37 971.856 2987.01 971.856C2989.78 971.856 2992.07 972.757 2993.87 974.56C2995.81 976.363 2996.78 978.789 2996.78 981.84C2996.78 984.891 2995.81 987.317 2993.87 989.12C2992.07 990.923 2989.78 991.824 2987.01 991.824ZM3121.71 1118.5C3112.56 1118.5 3105.35 1116.83 3100.08 1113.5C3094.95 1110.18 3091.27 1105.53 3089.05 1099.57C3086.97 1093.61 3085.93 1086.6 3085.93 1078.56V1024.06H3055.77V1016.99L3086.14 1016.16L3087.39 983.088H3095.08V1016.16H3148.33V1024.06H3095.08V1079.39C3095.08 1085.77 3095.85 1091.32 3097.37 1096.03C3098.9 1100.75 3101.67 1104.35 3105.69 1106.85C3109.71 1109.21 3115.47 1110.38 3122.96 1110.38C3128.23 1110.38 3132.94 1109.97 3137.1 1109.14C3141.4 1108.17 3145.56 1106.85 3149.58 1105.18L3152.08 1112.26C3147.5 1114.06 3142.79 1115.51 3137.93 1116.62C3133.22 1117.87 3127.81 1118.5 3121.71 1118.5ZM3217.72 1118.5C3211.76 1118.5 3206.14 1117.53 3200.88 1115.58C3195.61 1113.5 3191.31 1110.45 3187.98 1106.43C3184.65 1102.41 3182.99 1097.35 3182.99 1091.25C3182.99 1080.02 3188.95 1071.56 3200.88 1065.87C3212.94 1060.05 3232.49 1055.89 3259.53 1053.39C3259.53 1047.98 3258.63 1042.85 3256.83 1038C3255.02 1033.15 3251.97 1029.26 3247.68 1026.35C3243.38 1023.3 3237.41 1021.78 3229.79 1021.78C3224.8 1021.78 3219.94 1022.47 3215.23 1023.86C3210.51 1025.24 3206.14 1027.05 3202.12 1029.26C3198.1 1031.34 3194.7 1033.35 3191.93 1035.3L3187.77 1028.43C3190.41 1026.49 3193.94 1024.41 3198.38 1022.19C3202.96 1019.83 3208.02 1017.82 3213.56 1016.16C3219.25 1014.5 3225 1013.66 3230.83 1013.66C3239.84 1013.66 3247.12 1015.4 3252.67 1018.86C3258.21 1022.33 3262.24 1026.98 3264.73 1032.8C3267.37 1038.62 3268.68 1045.07 3268.68 1052.14V1116H3260.99L3259.95 1101.02H3259.53C3253.71 1105.6 3247.12 1109.69 3239.77 1113.3C3232.56 1116.76 3225.21 1118.5 3217.72 1118.5ZM3219.39 1110.59C3225.77 1110.59 3232.28 1109.07 3238.94 1106.02C3245.6 1102.97 3252.46 1098.46 3259.53 1092.5V1060.46C3242.61 1061.99 3229.23 1064.14 3219.39 1066.91C3209.54 1069.55 3202.54 1072.87 3198.38 1076.9C3194.36 1080.78 3192.35 1085.35 3192.35 1090.62C3192.35 1095.48 3193.66 1099.36 3196.3 1102.27C3198.93 1105.18 3202.26 1107.33 3206.28 1108.72C3210.44 1109.97 3214.81 1110.59 3219.39 1110.59ZM3374.47 1118.5C3365.18 1118.5 3357.9 1115.93 3352.63 1110.8C3347.5 1105.53 3344.94 1097.21 3344.94 1085.84V974.352H3307.29V966.448H3354.09V1087.09C3354.09 1094.99 3355.96 1100.89 3359.71 1104.77C3363.45 1108.51 3368.86 1110.38 3375.93 1110.38C3379.12 1110.38 3382.38 1109.97 3385.71 1109.14C3389.17 1108.3 3392.78 1106.99 3396.52 1105.18L3399.43 1112.26C3395.27 1114.2 3391.32 1115.72 3387.58 1116.83C3383.97 1117.94 3379.6 1118.5 3374.47 1118.5ZM3475.69 1118.5C3472.5 1118.5 3469.59 1117.32 3466.95 1114.96C3464.46 1112.46 3463.21 1109.14 3463.21 1104.98C3463.21 1100.54 3464.46 1097.21 3466.95 1094.99C3469.59 1092.63 3472.5 1091.46 3475.69 1091.46C3479.02 1091.46 3481.93 1092.63 3484.43 1094.99C3486.92 1097.21 3488.17 1100.54 3488.17 1104.98C3488.17 1109.14 3486.92 1112.46 3484.43 1114.96C3481.93 1117.32 3479.02 1118.5 3475.69 1118.5Z" fill="#032637"/>

</svg>
